<svg width="39" height="26" viewBox="0 0 39 26" fill="none" xmlns="http://www.w3.org/2000/svg">
<path d="M26.3676 0.36652H20.2452C20.2452 0.36652 19.561 0.298382 19.5785 0.812176C19.5959 1.32597 19.5785 1.4291 19.5785 1.4291C19.5785 1.4291 19.6134 1.82319 20.1258 1.75505L22.0922 1.76334C22.0922 1.76334 22.9648 1.80662 23.3404 2.37289C23.3404 2.37289 23.4947 2.85262 23.9732 2.64728C24.4517 2.44195 26.5559 0.761533 26.5559 0.761533C26.5559 0.761533 26.949 0.363757 26.3676 0.36652Z" fill="#10AEE5"/>
<path d="M24.4876 3.33322C24.4876 3.33322 24.0091 3.67575 24.3507 4.2761C24.6924 4.87645 26.7451 9.95085 26.7451 9.95085L24.3847 19.0205C24.3847 19.0205 24.2993 19.398 23.8373 19.398C23.3753 19.398 20.5199 19.398 20.5199 19.398C20.5199 19.398 20.0928 19.4321 20.0065 19.0896C19.9211 18.747 17.5607 13.4489 17.5607 13.4489C17.5607 13.4489 17.4064 13.0207 16.9793 12.9517C16.5522 12.8835 2.34023 9.81457 2.34023 9.81457C2.34023 9.81457 1.7414 9.65988 1.63946 10.0715C1.53659 10.4831 1.62201 10.5171 1.91315 10.9112C2.2043 11.3053 7.81323 19.0721 7.81323 19.0721C7.81323 19.0721 8.92455 20.8206 10.9084 20.8381C12.8922 20.8556 26.949 20.8381 26.949 20.8381C26.949 20.8381 27.5827 20.7866 27.5487 19.9293C27.5148 19.0721 28.2146 16.2434 30.6944 14.8374L32.9345 20.6494C32.9345 20.6494 33.413 21.2497 33.9944 20.9412C34.5757 20.6328 34.5243 20.0324 34.5243 20.0324L32.2668 14.2371C32.2668 14.2371 33.2247 13.9452 37.0206 14.0999C37.0206 14.0999 38.1154 13.8945 37.3623 13.0373C36.6092 12.18 27.9933 1.53126 27.9933 1.53126C27.9933 1.53126 27.6259 1.0764 27.0868 1.53126C26.4898 2.03401 24.4876 3.33322 24.4876 3.33322Z" fill="#10AEE5"/>
<path d="M1.05711 8.55323C1.05711 8.55323 0.287457 8.42432 0.390323 7.62785C0.513394 6.67577 1.67339 6.47043 2.0325 6.49622C2.39161 6.522 15.7816 6.49437 15.7816 6.49437C15.7816 6.49437 18.4148 6.73654 18.1163 8.96482L17.5266 11.3312C17.5266 11.3312 17.4752 12.1028 16.6036 11.9739C15.7302 11.845 1.05711 8.55323 1.05711 8.55323Z" fill="#10AEE5"/>
<path d="M33.6247 15.2473C33.5439 15.2473 33.463 15.2501 33.3822 15.2538L34.0958 17.087C35.7105 17.3172 36.9522 18.7076 36.9522 20.3889C36.9522 22.2314 35.4625 23.7249 33.6247 23.7249C31.7869 23.7249 30.2972 22.2314 30.2972 20.3889C30.2972 19.4921 30.6508 18.6781 31.2248 18.0787L30.5341 16.286C29.2961 17.2242 28.4961 18.7131 28.4961 20.3889C28.4961 23.2286 30.7922 25.5306 33.6247 25.5306C36.4572 25.5306 38.7533 23.2286 38.7533 20.3889C38.7533 17.5493 36.4572 15.2473 33.6247 15.2473Z" fill="#202020"/>
<path d="M9.15306 23.7249C7.31526 23.7249 5.82554 22.2314 5.82554 20.3889C5.82554 19.6375 6.07352 18.9451 6.49141 18.3871C6.18649 17.9645 5.81176 17.4461 5.40489 16.8826C4.54982 17.8015 4.02539 19.0335 4.02539 20.3889C4.02539 23.2286 6.3215 25.5305 9.15398 25.5305C11.5998 25.5305 13.6442 23.8142 14.1567 21.5168C13.4165 21.5168 12.7929 21.5159 12.2868 21.515C11.8248 22.8032 10.5959 23.7249 9.15306 23.7249Z" fill="#202020"/>
</svg>
